<svg width="90" height="91" viewBox="0 0 90 91" fill="none" xmlns="http://www.w3.org/2000/svg">
<path d="M57.0412 40.4569C76.0473 41.0692 90 43.0951 90 45.5C90 47.9049 76.0473 49.9308 57.0412 50.5431C70.0524 64.5646 78.5016 75.9729 76.8198 77.6734C75.138 79.3739 63.8551 70.8308 49.9877 57.6751C49.3821 76.8923 47.3785 91 45 91C42.6215 91 40.6179 76.8923 40.0124 57.675C26.1449 70.8307 14.862 79.3738 13.1802 77.6733C11.4984 75.9728 19.9476 64.5646 32.9587 50.5431C13.9527 49.9308 0 47.9049 0 45.5C0 43.0951 13.9527 41.0692 32.9587 40.4569C19.9476 26.4354 11.4984 15.0272 13.1802 13.3266C14.862 11.6261 26.1449 20.1692 40.0124 33.325C40.6179 14.1077 42.6215 0 45 0C47.3785 0 49.3821 14.1077 49.9877 33.3249C63.8551 20.1692 75.138 11.6261 76.8198 13.3266C78.5016 15.0271 70.0524 26.4354 57.0412 40.4569Z" fill="#EA874A"/>
</svg>
